# xmcd
#
# Track frame offsets:
#	150
#	20072
#	36757
#	68719
#	97764
#	127063
#	146914
#	167244
#	199911
#	217938
#	240033
#	266319
#	297198
#	314801
#	333839
#
# Disc length: 4733 seconds
#
# Revision: 4
# Processed by: cddbd v1.5.2PL0 Copyright (c) Steve Scherf et al.
# Submitted via: EasyCDDAExtractor 2010.6.0.0
#
DISCID=db127b0f
DTITLE=Various Artist - Ferry Maat's Soulshow "Volume 1"
DYEAR=2004
DGENRE=Soul
TTITLE0=Earth, Wind and Fire - Star
TTITLE1=Shalamar - The Second Time Around
TTITLE2=Change - Change Of Heart
TTITLE3=Rick James - Big Time
TTITLE4=Fat Larry's Band - Act Like You Know
TTITLE5=Pockets - Come Go With Me
TTITLE6=Delegation - Put A Little Love On Me
TTITLE7=Jocko - Rhythm Talk (Ain't No Stoppin' Us Now)
TTITLE8=L.T.D. - Holding On
TTITLE9=Atlantic Starr - Circles
TTITLE10=Mac Band - Roses Are Red
TTITLE11=Lakeside - From 9.00 Until
TTITLE12=Rose Royce - Best Love
TTITLE13=Isley Brothers - It's A Disco Night
TTITLE14=Kool and The Gang - Steppin' Out
EXTD=
EXTT0=
EXTT1=
EXTT2=
EXTT3=
EXTT4=
EXTT5=
EXTT6=
EXTT7=
EXTT8=
EXTT9=
EXTT10=
EXTT11=
EXTT12=
EXTT13=
EXTT14=
PLAYORDER=
